<mxfile host="65bd71144e" modified="2021-03-05T03:52:59.611Z" agent="5.0 (X11; Linux x86_64) AppleWebKit/537.36 (KHTML, like Gecko) Code/1.53.2 Chrome/87.0.4280.141 Electron/11.2.1 Safari/537.36" etag="KZf9xB0J7ig00QpspiLv" version="14.2.4" type="embed">
    <diagram id="6hGFLwfOUW9BJ-s0fimq" name="0.1main">
        <mxGraphModel dx="1302" dy="515" grid="1" gridSize="10" guides="1" tooltips="1" connect="1" arrows="1" fold="1" page="1" pageScale="1" pageWidth="1600" pageHeight="900" math="0" shadow="0">
            <root>
                <mxCell id="0"/>
                <mxCell id="1" parent="0"/>
                <mxCell id="105" value="Wiindows" style="rounded=0;whiteSpace=wrap;html=1;dashed=1;verticalAlign=bottom;" vertex="1" parent="1">
                    <mxGeometry x="260" y="700" width="730" height="150" as="geometry"/>
                </mxCell>
                <mxCell id="88" value="avs_player_factory" style="rounded=1;whiteSpace=wrap;html=1;" parent="1" vertex="1">
                    <mxGeometry x="765" y="250" width="270" height="60" as="geometry"/>
                </mxCell>
                <mxCell id="89" value="avs_player" style="rounded=1;whiteSpace=wrap;html=1;" parent="1" vertex="1">
                    <mxGeometry x="250" y="330" width="790" height="60" as="geometry"/>
                </mxCell>
                <mxCell id="90" value="avs_ingress" style="rounded=1;whiteSpace=wrap;html=1;" parent="1" vertex="1">
                    <mxGeometry x="760" y="420" width="280" height="20" as="geometry"/>
                </mxCell>
                <mxCell id="91" value="avs_stream_ingress" style="rounded=1;whiteSpace=wrap;html=1;" parent="1" vertex="1">
                    <mxGeometry x="760" y="480" width="140" height="70" as="geometry"/>
                </mxCell>
                <mxCell id="92" value="avs_decode_egress" style="rounded=1;whiteSpace=wrap;html=1;" parent="1" vertex="1">
                    <mxGeometry x="260" y="480" width="140" height="70" as="geometry"/>
                </mxCell>
                <mxCell id="93" value="avs_record_egress" style="rounded=1;whiteSpace=wrap;html=1;" parent="1" vertex="1">
                    <mxGeometry x="450" y="480" width="140" height="70" as="geometry"/>
                </mxCell>
                <mxCell id="94" value="avs_egress" style="rounded=1;whiteSpace=wrap;html=1;" parent="1" vertex="1">
                    <mxGeometry x="289" y="430" width="280" height="20" as="geometry"/>
                </mxCell>
                <mxCell id="95" value="avs_file_ingress" style="rounded=1;whiteSpace=wrap;html=1;" parent="1" vertex="1">
                    <mxGeometry x="920" y="480" width="120" height="70" as="geometry"/>
                </mxCell>
                <mxCell id="96" value="libMediaService" style="rounded=1;whiteSpace=wrap;html=1;" parent="1" vertex="1">
                    <mxGeometry x="600" y="600" width="440" height="60" as="geometry"/>
                </mxCell>
                <mxCell id="97" value="AllDecoder" style="rounded=1;whiteSpace=wrap;html=1;verticalAlign=bottom;" parent="1" vertex="1">
                    <mxGeometry x="360" y="750" width="591" height="80" as="geometry"/>
                </mxCell>
                <mxCell id="99" value="hw_mp" style="rounded=1;whiteSpace=wrap;html=1;" parent="1" vertex="1">
                    <mxGeometry x="360" y="710" width="80" height="30" as="geometry"/>
                </mxCell>
                <mxCell id="102" value="" style="endArrow=classic;html=1;entryX=0.5;entryY=1;entryDx=0;entryDy=0;" edge="1" parent="1" target="91">
                    <mxGeometry width="50" height="50" relative="1" as="geometry">
                        <mxPoint x="830" y="595" as="sourcePoint"/>
                        <mxPoint x="880" y="560" as="targetPoint"/>
                    </mxGeometry>
                </mxCell>
                <mxCell id="103" value="" style="endArrow=classic;html=1;entryX=0.5;entryY=1;entryDx=0;entryDy=0;exitX=0.578;exitY=-0.083;exitDx=0;exitDy=0;exitPerimeter=0;" edge="1" parent="1">
                    <mxGeometry width="50" height="50" relative="1" as="geometry">
                        <mxPoint x="980.5999999999998" y="595.02" as="sourcePoint"/>
                        <mxPoint x="979.4" y="550" as="targetPoint"/>
                    </mxGeometry>
                </mxCell>
                <mxCell id="104" value="" style="endArrow=classic;html=1;entryX=0.177;entryY=0;entryDx=0;entryDy=0;entryPerimeter=0;" edge="1" parent="1" target="96">
                    <mxGeometry width="50" height="50" relative="1" as="geometry">
                        <mxPoint x="590" y="520" as="sourcePoint"/>
                        <mxPoint x="677.8800000000001" y="600" as="targetPoint"/>
                        <Array as="points">
                            <mxPoint x="678" y="520"/>
                        </Array>
                    </mxGeometry>
                </mxCell>
                <mxCell id="106" value="libAVDecoder软解码" style="rounded=1;whiteSpace=wrap;html=1;dashed=1;" vertex="1" parent="1">
                    <mxGeometry x="385" y="780" width="120" height="40" as="geometry"/>
                </mxCell>
                <mxCell id="107" value="SDL渲染" style="rounded=1;whiteSpace=wrap;html=1;dashed=1;" vertex="1" parent="1">
                    <mxGeometry x="745" y="780" width="120" height="40" as="geometry"/>
                </mxCell>
                <mxCell id="108" value="截图" style="rounded=1;whiteSpace=wrap;html=1;dashed=1;" vertex="1" parent="1">
                    <mxGeometry x="590" y="755" width="100" height="25" as="geometry"/>
                </mxCell>
                <mxCell id="109" value="" style="endArrow=classic;html=1;exitX=1;exitY=0.5;exitDx=0;exitDy=0;entryX=0;entryY=0.5;entryDx=0;entryDy=0;" edge="1" parent="1" source="106" target="107">
                    <mxGeometry width="50" height="50" relative="1" as="geometry">
                        <mxPoint x="470" y="720" as="sourcePoint"/>
                        <mxPoint x="520" y="670" as="targetPoint"/>
                    </mxGeometry>
                </mxCell>
                <mxCell id="110" value="" style="endArrow=classic;html=1;exitX=0;exitY=0.5;exitDx=0;exitDy=0;entryX=0;entryY=0.5;entryDx=0;entryDy=0;" edge="1" parent="1" source="92" target="105">
                    <mxGeometry width="50" height="50" relative="1" as="geometry">
                        <mxPoint x="470" y="720" as="sourcePoint"/>
                        <mxPoint x="520" y="670" as="targetPoint"/>
                        <Array as="points">
                            <mxPoint x="160" y="515"/>
                            <mxPoint x="160" y="775"/>
                        </Array>
                    </mxGeometry>
                </mxCell>
                <mxCell id="111" value="Android" style="rounded=0;whiteSpace=wrap;html=1;dashed=1;verticalAlign=bottom;" vertex="1" parent="1">
                    <mxGeometry x="260" y="870" width="730" height="150" as="geometry"/>
                </mxCell>
                <mxCell id="112" value="IOS" style="rounded=0;whiteSpace=wrap;html=1;dashed=1;verticalAlign=bottom;" vertex="1" parent="1">
                    <mxGeometry x="260" y="1050" width="730" height="150" as="geometry"/>
                </mxCell>
                <mxCell id="114" value="" style="endArrow=classic;html=1;exitX=0;exitY=0.5;exitDx=0;exitDy=0;entryX=0;entryY=0.5;entryDx=0;entryDy=0;" edge="1" parent="1" source="92" target="111">
                    <mxGeometry width="50" height="50" relative="1" as="geometry">
                        <mxPoint x="260" y="520" as="sourcePoint"/>
                        <mxPoint x="260" y="780" as="targetPoint"/>
                        <Array as="points">
                            <mxPoint x="160" y="515"/>
                            <mxPoint x="160" y="945"/>
                        </Array>
                    </mxGeometry>
                </mxCell>
                <mxCell id="115" value="" style="endArrow=classic;html=1;exitX=0;exitY=0.5;exitDx=0;exitDy=0;entryX=0;entryY=0.5;entryDx=0;entryDy=0;" edge="1" parent="1" source="92" target="112">
                    <mxGeometry width="50" height="50" relative="1" as="geometry">
                        <mxPoint x="270" y="525" as="sourcePoint"/>
                        <mxPoint x="270" y="955" as="targetPoint"/>
                        <Array as="points">
                            <mxPoint x="160" y="515"/>
                            <mxPoint x="160" y="1125"/>
                        </Array>
                    </mxGeometry>
                </mxCell>
                <mxCell id="117" value="libAVDecoder软解码" style="rounded=1;whiteSpace=wrap;html=1;dashed=1;" vertex="1" parent="1">
                    <mxGeometry x="360" y="880" width="120" height="40" as="geometry"/>
                </mxCell>
                <mxCell id="118" value="OpenGL渲染" style="rounded=1;whiteSpace=wrap;html=1;dashed=1;" vertex="1" parent="1">
                    <mxGeometry x="755" y="930" width="120" height="40" as="geometry"/>
                </mxCell>
                <mxCell id="119" value="MediaCodec硬解码" style="rounded=1;whiteSpace=wrap;html=1;dashed=1;" vertex="1" parent="1">
                    <mxGeometry x="360" y="932.5" width="120" height="35" as="geometry"/>
                </mxCell>
                <mxCell id="120" value="" style="endArrow=classic;html=1;exitX=1;exitY=0.5;exitDx=0;exitDy=0;entryX=0;entryY=0.5;entryDx=0;entryDy=0;" edge="1" parent="1" source="117" target="118">
                    <mxGeometry width="50" height="50" relative="1" as="geometry">
                        <mxPoint x="480" y="870" as="sourcePoint"/>
                        <mxPoint x="530" y="820" as="targetPoint"/>
                        <Array as="points">
                            <mxPoint x="550" y="900"/>
                            <mxPoint x="550" y="950"/>
                        </Array>
                    </mxGeometry>
                </mxCell>
                <mxCell id="121" value="" style="endArrow=classic;html=1;exitX=1;exitY=0.5;exitDx=0;exitDy=0;entryX=0;entryY=0.5;entryDx=0;entryDy=0;" edge="1" parent="1" source="119" target="118">
                    <mxGeometry width="50" height="50" relative="1" as="geometry">
                        <mxPoint x="470" y="980" as="sourcePoint"/>
                        <mxPoint x="520" y="930" as="targetPoint"/>
                    </mxGeometry>
                </mxCell>
                <mxCell id="122" value="libAVDecoder软解码" style="rounded=1;whiteSpace=wrap;html=1;dashed=1;" vertex="1" parent="1">
                    <mxGeometry x="360" y="1070" width="120" height="40" as="geometry"/>
                </mxCell>
                <mxCell id="123" value="OpenGL渲染" style="rounded=1;whiteSpace=wrap;html=1;dashed=1;" vertex="1" parent="1">
                    <mxGeometry x="740" y="1070" width="120" height="40" as="geometry"/>
                </mxCell>
                <mxCell id="124" value="VideoToolBox硬解码" style="rounded=1;whiteSpace=wrap;html=1;dashed=1;" vertex="1" parent="1">
                    <mxGeometry x="360" y="1122.5" width="120" height="35" as="geometry"/>
                </mxCell>
                <mxCell id="125" value="" style="endArrow=classic;html=1;exitX=1;exitY=0.5;exitDx=0;exitDy=0;entryX=0;entryY=0.5;entryDx=0;entryDy=0;" edge="1" parent="1" source="122" target="123">
                    <mxGeometry width="50" height="50" relative="1" as="geometry">
                        <mxPoint x="480" y="1060" as="sourcePoint"/>
                        <mxPoint x="530" y="1010" as="targetPoint"/>
                        <Array as="points">
                            <mxPoint x="550" y="1090"/>
                        </Array>
                    </mxGeometry>
                </mxCell>
                <mxCell id="126" value="" style="endArrow=classic;html=1;exitX=1;exitY=0.5;exitDx=0;exitDy=0;entryX=0;entryY=0.5;entryDx=0;entryDy=0;" edge="1" parent="1" source="124" target="123">
                    <mxGeometry width="50" height="50" relative="1" as="geometry">
                        <mxPoint x="470" y="1170" as="sourcePoint"/>
                        <mxPoint x="520" y="1120" as="targetPoint"/>
                        <Array as="points">
                            <mxPoint x="550" y="1140"/>
                            <mxPoint x="550" y="1090"/>
                        </Array>
                    </mxGeometry>
                </mxCell>
                <mxCell id="127" value="&lt;font color=&quot;#ffffff&quot;&gt;&lt;span style=&quot;font-size: 16px ; text-align: left&quot;&gt;UIImage&lt;/span&gt;渲染&lt;/font&gt;" style="rounded=1;whiteSpace=wrap;html=1;dashed=1;" vertex="1" parent="1">
                    <mxGeometry x="740" y="1122.5" width="120" height="40" as="geometry"/>
                </mxCell>
                <mxCell id="128" value="" style="endArrow=classic;html=1;exitX=1;exitY=0.5;exitDx=0;exitDy=0;entryX=0;entryY=0.5;entryDx=0;entryDy=0;" edge="1" parent="1" source="124" target="127">
                    <mxGeometry width="50" height="50" relative="1" as="geometry">
                        <mxPoint x="470" y="970" as="sourcePoint"/>
                        <mxPoint x="520" y="920" as="targetPoint"/>
                    </mxGeometry>
                </mxCell>
                <mxCell id="129" value="" style="endArrow=classic;html=1;exitX=1;exitY=0.5;exitDx=0;exitDy=0;entryX=0;entryY=0.5;entryDx=0;entryDy=0;" edge="1" parent="1" source="122" target="127">
                    <mxGeometry width="50" height="50" relative="1" as="geometry">
                        <mxPoint x="470" y="970" as="sourcePoint"/>
                        <mxPoint x="520" y="920" as="targetPoint"/>
                        <Array as="points">
                            <mxPoint x="550" y="1090"/>
                            <mxPoint x="550" y="1143"/>
                        </Array>
                    </mxGeometry>
                </mxCell>
                <mxCell id="130" value="帧数据解码渲染" style="text;html=1;strokeColor=none;fillColor=none;align=center;verticalAlign=middle;whiteSpace=wrap;rounded=0;dashed=1;" vertex="1" parent="1">
                    <mxGeometry x="105" y="680" width="110" height="20" as="geometry"/>
                </mxCell>
                <mxCell id="131" value="帧数据写入MP4文件" style="text;html=1;strokeColor=none;fillColor=none;align=center;verticalAlign=middle;whiteSpace=wrap;rounded=0;dashed=1;" vertex="1" parent="1">
                    <mxGeometry x="560" y="560" width="114.5" height="20" as="geometry"/>
                </mxCell>
                <mxCell id="132" value="rtsp流数据" style="text;html=1;strokeColor=none;fillColor=none;align=center;verticalAlign=middle;whiteSpace=wrap;rounded=0;dashed=1;" vertex="1" parent="1">
                    <mxGeometry x="720" y="560" width="114.5" height="20" as="geometry"/>
                </mxCell>
                <mxCell id="133" value="MP4文件数据" style="text;html=1;strokeColor=none;fillColor=none;align=center;verticalAlign=middle;whiteSpace=wrap;rounded=0;dashed=1;" vertex="1" parent="1">
                    <mxGeometry x="865" y="560" width="114.5" height="20" as="geometry"/>
                </mxCell>
                <mxCell id="134" value="struct avs_render" style="rounded=1;whiteSpace=wrap;html=1;dashed=1;" vertex="1" parent="1">
                    <mxGeometry x="100" y="600" width="120" height="60" as="geometry"/>
                </mxCell>
                <mxCell id="135" value="android_player" style="rounded=1;whiteSpace=wrap;html=1;dashed=1;" vertex="1" parent="1">
                    <mxGeometry x="40" y="160" width="160" height="70" as="geometry"/>
                </mxCell>
                <mxCell id="137" value="ios_player" style="rounded=1;whiteSpace=wrap;html=1;dashed=1;" vertex="1" parent="1">
                    <mxGeometry x="240" y="160" width="160" height="70" as="geometry"/>
                </mxCell>
                <mxCell id="138" value="windows_player" style="rounded=1;whiteSpace=wrap;html=1;dashed=1;" vertex="1" parent="1">
                    <mxGeometry x="440" y="160" width="160" height="70" as="geometry"/>
                </mxCell>
                <mxCell id="139" value="" style="endArrow=classic;html=1;exitX=0.5;exitY=1;exitDx=0;exitDy=0;entryX=0.5;entryY=0;entryDx=0;entryDy=0;" edge="1" parent="1" source="135" target="89">
                    <mxGeometry width="50" height="50" relative="1" as="geometry">
                        <mxPoint x="470" y="360" as="sourcePoint"/>
                        <mxPoint x="520" y="310" as="targetPoint"/>
                        <Array as="points">
                            <mxPoint x="120" y="300"/>
                            <mxPoint x="645" y="300"/>
                        </Array>
                    </mxGeometry>
                </mxCell>
                <mxCell id="140" value="" style="endArrow=classic;html=1;exitX=0.5;exitY=1;exitDx=0;exitDy=0;entryX=0.5;entryY=0;entryDx=0;entryDy=0;" edge="1" parent="1" source="137" target="89">
                    <mxGeometry width="50" height="50" relative="1" as="geometry">
                        <mxPoint x="470" y="360" as="sourcePoint"/>
                        <mxPoint x="650" y="330" as="targetPoint"/>
                        <Array as="points">
                            <mxPoint x="320" y="300"/>
                            <mxPoint x="645" y="300"/>
                        </Array>
                    </mxGeometry>
                </mxCell>
                <mxCell id="141" value="" style="endArrow=classic;html=1;exitX=0.5;exitY=1;exitDx=0;exitDy=0;entryX=0.5;entryY=0;entryDx=0;entryDy=0;" edge="1" parent="1" source="138" target="89">
                    <mxGeometry width="50" height="50" relative="1" as="geometry">
                        <mxPoint x="470" y="360" as="sourcePoint"/>
                        <mxPoint x="520" y="310" as="targetPoint"/>
                        <Array as="points">
                            <mxPoint x="520" y="300"/>
                            <mxPoint x="645" y="300"/>
                        </Array>
                    </mxGeometry>
                </mxCell>
            </root>
        </mxGraphModel>
    </diagram>
</mxfile>